<svg width="85" height="37" viewBox="0 0 85 37" fill="none" xmlns="http://www.w3.org/2000/svg">
<path d="M17.056 0.737704C19.168 0.737704 20.896 1.0577 22.24 1.69771C23.616 2.30571 24.832 3.02571 25.888 3.85771C26.528 4.33771 27.008 4.40171 27.328 4.0497C27.68 3.66571 27.92 2.78571 28.048 1.40971H29.152C29.088 2.65771 29.04 4.17771 29.008 5.96971C28.976 7.72971 28.96 10.0817 28.96 13.0257H27.856C27.696 11.5537 27.488 10.3057 27.232 9.28171C26.976 8.22571 26.624 7.29771 26.176 6.4977C25.728 5.69771 25.088 4.97771 24.256 4.33771C23.456 3.53771 22.528 2.94571 21.472 2.56171C20.416 2.17771 19.312 1.98571 18.16 1.98571C16.432 1.98571 14.96 2.44971 13.744 3.3777C12.528 4.2737 11.536 5.5057 10.768 7.07371C10.032 8.64171 9.488 10.4177 9.136 12.4017C8.784 14.3537 8.608 16.3857 8.608 18.4977C8.608 20.6417 8.784 22.7057 9.136 24.6897C9.52 26.6417 10.096 28.3857 10.864 29.9217C11.664 31.4577 12.688 32.6737 13.936 33.5697C15.184 34.4657 16.656 34.9137 18.352 34.9137C19.408 34.9137 20.464 34.7217 21.52 34.3377C22.608 33.9217 23.536 33.3297 24.304 32.5617C25.552 31.6017 26.4 30.4177 26.848 29.0097C27.296 27.5697 27.632 25.6657 27.856 23.2977H28.96C28.96 26.3377 28.976 28.8017 29.008 30.6897C29.04 32.5457 29.088 34.1137 29.152 35.3937H28.048C27.92 34.0177 27.696 33.1537 27.376 32.8017C27.088 32.4497 26.592 32.4977 25.888 32.9457C24.704 33.7777 23.44 34.5137 22.096 35.1537C20.784 35.7617 19.088 36.0657 17.008 36.0657C13.616 36.0657 10.64 35.3777 8.08 34.0017C5.552 32.6257 3.584 30.6417 2.176 28.0497C0.768 25.4577 0.0640001 22.3377 0.0640001 18.6897C0.0640001 15.1057 0.784 11.9697 2.224 9.28171C3.696 6.59371 5.696 4.49771 8.224 2.99371C10.784 1.48971 13.728 0.737704 17.056 0.737704ZM66.4551 1.40971V2.36971C65.7511 2.62571 65.0151 3.18571 64.2471 4.0497C63.4791 4.88171 62.8071 6.22571 62.2311 8.08171L53.7831 35.4897C53.5271 35.4577 53.2551 35.4417 52.9671 35.4417C52.6791 35.4417 52.3911 35.4417 52.1031 35.4417C51.8151 35.4417 51.5271 35.4417 51.2391 35.4417C50.9511 35.4417 50.6791 35.4577 50.4231 35.4897L40.3431 4.96171C40.0231 3.96971 39.6231 3.29771 39.1431 2.9457C38.6951 2.59371 38.2151 2.40171 37.7031 2.36971V1.40971C38.5991 1.44171 39.6551 1.47371 40.8711 1.50571C42.1191 1.53771 43.3511 1.55371 44.5671 1.55371C45.9751 1.55371 47.2871 1.53771 48.5031 1.50571C49.7511 1.47371 50.7431 1.44171 51.4791 1.40971V2.36971C50.5191 2.40171 49.7511 2.51371 49.1751 2.7057C48.6311 2.89771 48.3111 3.26571 48.2151 3.8097C48.1511 4.35371 48.3111 5.21771 48.6951 6.40171L55.5111 27.2337L54.4071 29.2017L59.8311 11.9697C60.5991 9.53771 60.9671 7.63371 60.9351 6.2577C60.9031 4.88171 60.5351 3.90571 59.8311 3.32971C59.1271 2.72171 58.1191 2.40171 56.8071 2.36971V1.40971C57.8951 1.44171 58.9191 1.47371 59.8791 1.50571C60.8391 1.53771 61.7991 1.55371 62.7591 1.55371C63.4951 1.55371 64.1671 1.53771 64.7751 1.50571C65.4151 1.47371 65.9751 1.44171 66.4551 1.40971ZM32.1831 1.40971V2.36971C31.5431 2.4657 31.0951 2.7057 30.8391 3.08971C30.5831 3.4417 30.4711 3.92171 30.5031 4.52971C30.5671 5.10571 30.7111 5.72971 30.9351 6.40171L38.2791 27.7137L36.9831 29.4417L43.1271 11.4897L43.7991 12.7857L36.2631 35.4897C36.0071 35.4577 35.7351 35.4417 35.4471 35.4417C35.1591 35.4417 34.8711 35.4417 34.5831 35.4417C34.2951 35.4417 34.0071 35.4417 33.7191 35.4417C33.4311 35.4417 33.1591 35.4577 32.9031 35.4897L22.1511 5.44171C21.7351 4.25771 21.2391 3.45771 20.6631 3.04171C20.1191 2.62571 19.6071 2.40171 19.1271 2.36971V1.40971C20.0871 1.44171 21.2231 1.47371 22.5351 1.50571C23.8471 1.53771 25.0951 1.55371 26.2791 1.55371C27.5591 1.55371 28.6951 1.53771 29.6871 1.50571C30.7111 1.47371 31.5431 1.44171 32.1831 1.40971ZM55.7883 1.40971C56.6203 1.44171 57.7083 1.47371 59.0523 1.50571C60.3963 1.53771 61.7403 1.55371 63.0843 1.55371C64.6203 1.55371 66.1083 1.53771 67.5483 1.50571C68.9883 1.47371 70.0123 1.45771 70.6203 1.45771C74.5883 1.45771 77.5483 2.16171 79.5002 3.56971C81.4843 4.97771 82.4763 6.78571 82.4763 8.99371C82.4763 10.1137 82.1403 11.2497 81.4683 12.4017C80.7963 13.5537 79.7563 14.5777 78.3483 15.4737C76.9403 16.3697 75.1163 17.0257 72.8763 17.4417V17.5377C75.8843 17.7617 78.2683 18.3057 80.0283 19.1697C81.7883 20.0337 83.0523 21.0737 83.8203 22.2897C84.5883 23.5057 84.9723 24.7697 84.9723 26.0817C84.9723 28.0977 84.4443 29.7937 83.3883 31.1697C82.3323 32.5457 80.8123 33.6017 78.8282 34.3377C76.8443 35.0417 74.4763 35.3937 71.7243 35.3937C70.9563 35.3937 69.8523 35.3777 68.4123 35.3457C66.9723 35.2817 65.2283 35.2497 63.1803 35.2497C61.7723 35.2497 60.3963 35.2657 59.0523 35.2977C57.7083 35.2977 56.6203 35.3297 55.7883 35.3937V34.4337C56.8123 34.3697 57.5803 34.2417 58.0923 34.0497C58.6043 33.8577 58.9403 33.4737 59.1003 32.8977C59.2923 32.3217 59.3883 31.4577 59.3883 30.3057V6.4977C59.3883 5.3137 59.2923 4.44971 59.1003 3.90571C58.9403 3.32971 58.5883 2.94571 58.0443 2.75371C57.5323 2.52971 56.7803 2.40171 55.7883 2.36971V1.40971ZM69.9963 2.36971C68.7483 2.36971 67.9323 2.64171 67.5483 3.18571C67.1963 3.72971 67.0203 4.8337 67.0203 6.4977V30.3057C67.0203 31.4257 67.1003 32.2737 67.2603 32.8497C67.4523 33.4257 67.7723 33.8097 68.2203 34.0017C68.7003 34.1937 69.4043 34.2897 70.3323 34.2897C72.6363 34.2897 74.3163 33.5697 75.3723 32.1297C76.4603 30.6577 77.0043 28.5777 77.0043 25.8897C77.0043 23.4257 76.3803 21.5217 75.1323 20.1777C73.9163 18.8337 71.8843 18.1617 69.0363 18.1617H64.9563C64.9563 18.1617 64.9563 18.0337 64.9563 17.7777C64.9563 17.4897 64.9563 17.3457 64.9563 17.3457H69.0843C70.5883 17.3457 71.7403 16.9937 72.5403 16.2897C73.3403 15.5537 73.9003 14.5937 74.2203 13.4097C74.5403 12.1937 74.7003 10.8977 74.7003 9.52171C74.7003 7.15371 74.3323 5.37771 73.5963 4.19371C72.8603 2.97771 71.6603 2.36971 69.9963 2.36971Z" fill="black"/>
</svg>
